<svg width="1600" height="980" viewBox="0 0 1600 980" fill="none" xmlns="http://www.w3.org/2000/svg">
  <defs>
    <linearGradient id="bg" x1="0" y1="0" x2="1600" y2="980" gradientUnits="userSpaceOnUse">
      <stop stop-color="#20496D"/>
      <stop offset="1" stop-color="#132744"/>
    </linearGradient>
    <linearGradient id="panel" x1="0" y1="0" x2="1" y2="1">
      <stop stop-color="#25486E" stop-opacity="0.98"/>
      <stop offset="1" stop-color="#152847" stop-opacity="0.98"/>
    </linearGradient>
    <linearGradient id="chart" x1="0" y1="0" x2="1" y2="1">
      <stop stop-color="#132A49"/>
      <stop offset="1" stop-color="#0B1530"/>
    </linearGradient>
  </defs>
  <rect width="1600" height="980" rx="28" fill="url(#bg)"/>

  <rect x="20" y="20" width="1560" height="940" rx="34" fill="url(#panel)" stroke="#63CBFF" stroke-opacity="0.14"/>
  <text x="48" y="74" fill="#56D5FF" font-family="Arial, sans-serif" font-size="24" font-weight="700" letter-spacing="2">CURVES</text>
  <text x="48" y="126" fill="#F3F8FF" font-family="Arial, sans-serif" font-size="48" font-weight="800">账户权益 / 净收益 / 净成本</text>
  <text x="48" y="178" fill="#B0C4DD" font-family="Arial, sans-serif" font-size="26" font-weight="700">这里的净收益按账户权益减累计净投入计算，会随每日资产波动连续变化；上方总览里的总盈亏仍是交易口径。</text>

  <rect x="48" y="206" width="476" height="94" rx="18" fill="#172A46"/>
  <rect x="540" y="206" width="476" height="94" rx="18" fill="#172A46" stroke="#6FC8FF" stroke-opacity="0.55"/>
  <rect x="1032" y="206" width="520" height="94" rx="18" fill="#172A46"/>
  <g font-family="Arial, sans-serif">
    <rect x="68" y="248" width="42" height="8" rx="4" fill="#56D5FF"/>
    <text x="126" y="246" fill="#F3F8FF" font-size="28" font-weight="800">账户权益</text>
    <text x="126" y="280" fill="#B0C4DD" font-size="18" font-weight="700">最新 67,600.61</text>

    <rect x="560" y="248" width="42" height="8" rx="4" fill="#B7E522"/>
    <text x="618" y="246" fill="#F3F8FF" font-size="28" font-weight="800">净收益</text>
    <text x="618" y="280" fill="#B0C4DD" font-size="18" font-weight="700">最新 18,131.12</text>

    <rect x="1052" y="248" width="42" height="8" rx="4" fill="#FFB454"/>
    <text x="1110" y="246" fill="#F3F8FF" font-size="28" font-weight="800">净成本</text>
    <text x="1110" y="280" fill="#B0C4DD" font-size="18" font-weight="700">最新 49,469.49</text>
  </g>

  <rect x="48" y="324" width="1504" height="606" rx="28" fill="url(#chart)" stroke="#63CBFF" stroke-opacity="0.12"/>
  <g stroke="#93AAC7" stroke-opacity="0.12" stroke-dasharray="6 8">
    <line x1="82" y1="860" x2="1508" y2="860"/>
    <line x1="82" y1="736" x2="1508" y2="736"/>
    <line x1="82" y1="612" x2="1508" y2="612"/>
    <line x1="82" y1="488" x2="1508" y2="488"/>
    <line x1="82" y1="364" x2="1508" y2="364"/>
  </g>

  <g font-family="Arial, sans-serif" fill="#93AAC7" font-size="18" font-weight="700">
    <text x="1450" y="334">资产</text>
    <text x="1486" y="364">80K</text>
    <text x="1486" y="488">60K</text>
    <text x="1486" y="612">40K</text>
    <text x="1486" y="736">20K</text>
    <text x="1486" y="860">0</text>
    <text x="82" y="894">2024-07</text>
    <text x="380" y="894">2024-10</text>
    <text x="596" y="894">2025-01</text>
    <text x="800" y="894">2025-04</text>
    <text x="1008" y="894">2025-07</text>
    <text x="1188" y="894">2025-10</text>
    <text x="1386" y="894">2026-04</text>
  </g>

  <polyline points="82,772 136,760 196,760 256,760 320,736 392,736 468,708 556,708 670,668 732,676 804,652 912,628 988,560 1084,500 1148,474 1256,448 1360,448 1456,392 1504,330" fill="none" stroke="#56D5FF" stroke-width="6" stroke-linecap="round" stroke-linejoin="round"/>
  <polyline points="82,772 196,772 320,768 468,764 620,760 716,784 824,732 932,704 1036,660 1148,624 1260,638 1388,648 1468,664 1504,594" fill="none" stroke="#B7E522" stroke-width="5" stroke-linecap="round" stroke-linejoin="round"/>
  <polyline points="82,770 138,758 198,758 258,758 316,734 394,734 468,708 556,708 668,670 916,670 988,632 1142,592 1282,546 1474,546 1504,500" fill="none" stroke="#FFB454" stroke-width="5" stroke-linecap="round" stroke-linejoin="round"/>

  <rect x="86" y="884" width="1418" height="14" rx="6" fill="#54D5FF"/>
  <rect x="86" y="896" width="1418" height="24" rx="8" fill="#A9B0E3" fill-opacity="0.45"/>
</svg>
